<mxfile host="app.diagrams.net" modified="2023-09-28T09:40:03.471Z" agent="Mozilla/5.0 (Windows NT 10.0; Win64; x64) AppleWebKit/537.36 (KHTML, like Gecko) Chrome/116.0.0.0 Safari/537.36" etag="rdvF_kUjeyYDojB7ZeaN" version="21.8.2" type="device">
  <diagram name="Страница — 1" id="K8Wx1m4RjslwDhSuhDEU">
    <mxGraphModel dx="934" dy="608" grid="1" gridSize="10" guides="1" tooltips="1" connect="1" arrows="1" fold="1" page="1" pageScale="1" pageWidth="1169" pageHeight="827" math="0" shadow="0">
      <root>
        <mxCell id="0" />
        <mxCell id="1" parent="0" />
        <mxCell id="4CcN1vGno0O6_xGIugly-1" value="" style="rounded=0;whiteSpace=wrap;html=1;fillColor=#a20025;strokeColor=#6F0000;fontColor=#ffffff;" parent="1" vertex="1">
          <mxGeometry x="10" y="20" width="1110" height="790" as="geometry" />
        </mxCell>
        <mxCell id="15FA2ihE8GJzGa1C7Rdp-4" value="" style="shape=note;whiteSpace=wrap;html=1;backgroundOutline=1;darkOpacity=0.05;fillColor=#d80073;fontColor=#ffffff;strokeColor=#A50040;size=61;" vertex="1" parent="1">
          <mxGeometry x="110" y="200" width="190" height="240" as="geometry" />
        </mxCell>
        <mxCell id="15FA2ihE8GJzGa1C7Rdp-5" value="" style="endArrow=none;html=1;rounded=0;exitX=0;exitY=0.5;exitDx=0;exitDy=0;exitPerimeter=0;entryX=0.989;entryY=0.503;entryDx=0;entryDy=0;entryPerimeter=0;" edge="1" parent="1">
          <mxGeometry width="50" height="50" relative="1" as="geometry">
            <mxPoint x="110" y="280" as="sourcePoint" />
            <mxPoint x="297.9100000000001" y="280.72" as="targetPoint" />
            <Array as="points" />
          </mxGeometry>
        </mxCell>
        <mxCell id="15FA2ihE8GJzGa1C7Rdp-6" value="&lt;u&gt;Зробити перевірку температури?&lt;/u&gt;" style="text;html=1;strokeColor=none;fillColor=none;align=center;verticalAlign=middle;whiteSpace=wrap;rounded=0;fontFamily=Lucida Console;" vertex="1" parent="1">
          <mxGeometry x="110" y="220" width="130" height="60" as="geometry" />
        </mxCell>
        <mxCell id="15FA2ihE8GJzGa1C7Rdp-7" value="&lt;u&gt;Почати перевірку.&lt;/u&gt;" style="shape=hexagon;perimeter=hexagonPerimeter2;whiteSpace=wrap;html=1;fixedSize=1;fillColor=#0050ef;fontColor=#ffffff;strokeColor=#001DBC;fontFamily=Lucida Console;" vertex="1" parent="1">
          <mxGeometry x="137.5" y="326" width="135" height="87" as="geometry" />
        </mxCell>
        <mxCell id="15FA2ihE8GJzGa1C7Rdp-10" value="" style="shape=or;whiteSpace=wrap;html=1;fillColor=#d80073;fontColor=#ffffff;strokeColor=#A50040;" vertex="1" parent="1">
          <mxGeometry x="585" y="210" width="210" height="230" as="geometry" />
        </mxCell>
        <mxCell id="15FA2ihE8GJzGa1C7Rdp-11" value="" style="shape=or;whiteSpace=wrap;html=1;rotation=-180;fillColor=#d80073;fontColor=#ffffff;strokeColor=#A50040;" vertex="1" parent="1">
          <mxGeometry x="375" y="210" width="210" height="230" as="geometry" />
        </mxCell>
        <mxCell id="15FA2ihE8GJzGa1C7Rdp-12" value="" style="endArrow=none;html=1;rounded=0;entryX=-0.009;entryY=0.004;entryDx=0;entryDy=0;entryPerimeter=0;exitX=-0.002;exitY=0.008;exitDx=0;exitDy=0;exitPerimeter=0;" edge="1" parent="1" source="15FA2ihE8GJzGa1C7Rdp-11" target="15FA2ihE8GJzGa1C7Rdp-10">
          <mxGeometry width="50" height="50" relative="1" as="geometry">
            <mxPoint x="440" y="350" as="sourcePoint" />
            <mxPoint x="490" y="300" as="targetPoint" />
          </mxGeometry>
        </mxCell>
        <mxCell id="15FA2ihE8GJzGa1C7Rdp-13" value="&lt;font face=&quot;Lucida Console&quot;&gt;&lt;u&gt;Поточна температура:&lt;/u&gt;&lt;/font&gt;" style="text;html=1;strokeColor=none;fillColor=none;align=center;verticalAlign=middle;whiteSpace=wrap;rounded=0;" vertex="1" parent="1">
          <mxGeometry x="430" y="240" width="150" height="50" as="geometry" />
        </mxCell>
        <mxCell id="15FA2ihE8GJzGa1C7Rdp-14" value="+17&amp;nbsp;°C" style="rhombus;whiteSpace=wrap;html=1;fillColor=#0050ef;fontColor=#ffffff;strokeColor=#001DBC;" vertex="1" parent="1">
          <mxGeometry x="452.5" y="290" width="105" height="110" as="geometry" />
        </mxCell>
        <mxCell id="15FA2ihE8GJzGa1C7Rdp-15" value="&lt;font face=&quot;Lucida Console&quot;&gt;&lt;u&gt;Для змінення натисніть на клавіатурі стрілка вліво або стрілка вправо:&lt;/u&gt;&lt;/font&gt;" style="text;html=1;strokeColor=none;fillColor=none;align=center;verticalAlign=middle;whiteSpace=wrap;rounded=0;" vertex="1" parent="1">
          <mxGeometry x="584" y="240" width="190" height="70" as="geometry" />
        </mxCell>
        <mxCell id="15FA2ihE8GJzGa1C7Rdp-16" value="" style="shape=flexArrow;endArrow=classic;html=1;rounded=0;width=11.304347826086957;endSize=7.530434782608697;exitX=0.595;exitY=0.478;exitDx=0;exitDy=0;exitPerimeter=0;" edge="1" parent="1">
          <mxGeometry width="50" height="50" relative="1" as="geometry">
            <mxPoint x="710" y="325.99999999999994" as="sourcePoint" />
            <mxPoint x="750.05" y="326.06" as="targetPoint" />
            <Array as="points">
              <mxPoint x="730.05" y="326.06" />
            </Array>
          </mxGeometry>
        </mxCell>
        <mxCell id="15FA2ihE8GJzGa1C7Rdp-19" value="" style="shape=flexArrow;endArrow=classic;html=1;rounded=0;width=11.304347826086957;endSize=7.530434782608697;entryX=0.119;entryY=0.504;entryDx=0;entryDy=0;entryPerimeter=0;" edge="1" parent="1" target="15FA2ihE8GJzGa1C7Rdp-10">
          <mxGeometry width="50" height="50" relative="1" as="geometry">
            <mxPoint x="650" y="326" as="sourcePoint" />
            <mxPoint x="690" y="326" as="targetPoint" />
            <Array as="points">
              <mxPoint x="640" y="326" />
              <mxPoint x="630" y="326" />
            </Array>
          </mxGeometry>
        </mxCell>
        <mxCell id="15FA2ihE8GJzGa1C7Rdp-21" value="+25 °C" style="rhombus;whiteSpace=wrap;html=1;fillColor=#0050ef;fontColor=#ffffff;strokeColor=#001DBC;" vertex="1" parent="1">
          <mxGeometry x="652.87" y="300" width="52.25" height="60" as="geometry" />
        </mxCell>
        <mxCell id="15FA2ihE8GJzGa1C7Rdp-22" value="&lt;font face=&quot;Lucida Console&quot;&gt;Зміненний показник:&lt;/font&gt;" style="text;html=1;strokeColor=none;fillColor=none;align=center;verticalAlign=middle;whiteSpace=wrap;rounded=0;" vertex="1" parent="1">
          <mxGeometry x="618.51" y="360" width="141.49" height="40" as="geometry" />
        </mxCell>
        <mxCell id="15FA2ihE8GJzGa1C7Rdp-23" value="" style="shape=note;whiteSpace=wrap;html=1;backgroundOutline=1;darkOpacity=0.05;fillColor=#d80073;fontColor=#ffffff;strokeColor=#A50040;" vertex="1" parent="1">
          <mxGeometry x="880" y="230" width="150" height="210" as="geometry" />
        </mxCell>
        <mxCell id="15FA2ihE8GJzGa1C7Rdp-24" value="" style="endArrow=none;html=1;rounded=0;exitX=0;exitY=0.5;exitDx=0;exitDy=0;exitPerimeter=0;entryX=0.99;entryY=0.502;entryDx=0;entryDy=0;entryPerimeter=0;" edge="1" parent="1">
          <mxGeometry width="50" height="50" relative="1" as="geometry">
            <mxPoint x="880" y="290" as="sourcePoint" />
            <mxPoint x="1028.4999999999998" y="290.41999999999996" as="targetPoint" />
          </mxGeometry>
        </mxCell>
        <mxCell id="15FA2ihE8GJzGa1C7Rdp-25" value="&lt;font face=&quot;Lucida Console&quot;&gt;&lt;u&gt;Показник збільшенно:&lt;/u&gt;&lt;/font&gt;" style="text;html=1;strokeColor=none;fillColor=none;align=center;verticalAlign=middle;whiteSpace=wrap;rounded=0;" vertex="1" parent="1">
          <mxGeometry x="880" y="250" width="140" height="30" as="geometry" />
        </mxCell>
        <mxCell id="15FA2ihE8GJzGa1C7Rdp-26" value="+25 °C" style="rhombus;whiteSpace=wrap;html=1;fillColor=#0050ef;fontColor=#ffffff;strokeColor=#001DBC;" vertex="1" parent="1">
          <mxGeometry x="928.87" y="315" width="52.25" height="60" as="geometry" />
        </mxCell>
        <mxCell id="15FA2ihE8GJzGa1C7Rdp-27" value="Закінчити" style="ellipse;whiteSpace=wrap;html=1;fillColor=#0050ef;fontColor=#ffffff;strokeColor=#001DBC;" vertex="1" parent="1">
          <mxGeometry x="910" y="398" width="90" height="31" as="geometry" />
        </mxCell>
        <mxCell id="15FA2ihE8GJzGa1C7Rdp-28" style="edgeStyle=orthogonalEdgeStyle;rounded=0;orthogonalLoop=1;jettySize=auto;html=1;exitX=0;exitY=0;exitDx=190;exitDy=150.5;exitPerimeter=0;entryX=1;entryY=0.5;entryDx=0;entryDy=0;entryPerimeter=0;" edge="1" parent="1" source="15FA2ihE8GJzGa1C7Rdp-4" target="15FA2ihE8GJzGa1C7Rdp-11">
          <mxGeometry relative="1" as="geometry" />
        </mxCell>
        <mxCell id="15FA2ihE8GJzGa1C7Rdp-29" style="edgeStyle=orthogonalEdgeStyle;rounded=0;orthogonalLoop=1;jettySize=auto;html=1;exitX=1;exitY=0.5;exitDx=0;exitDy=0;exitPerimeter=0;entryX=0;entryY=0.5;entryDx=0;entryDy=0;entryPerimeter=0;" edge="1" parent="1" source="15FA2ihE8GJzGa1C7Rdp-10" target="15FA2ihE8GJzGa1C7Rdp-23">
          <mxGeometry relative="1" as="geometry" />
        </mxCell>
      </root>
    </mxGraphModel>
  </diagram>
</mxfile>
